# generated from PmQm by Jehee Lee
:FULLY-SPECIFIED
:DEGREES
242
root 12.0747 3.99789 4.14283 -155.664 85.5143 -64.9185
RightUpLeg -52.9136 -0.701311 0.657873
RightLeg 114.468 11.182 0.597388
RightFoot 18.8689 -2.42055 8.44686
RightToes 4.07452e-010 -1.59028e-015 9.93923e-017
Spine 41.2817 2.62428 0.126655
Spine1 30.5003 3.89354 -2.4044
HEad -24.9688 -1.86473 0.750781
LeftShoulder1 9.93923e-017 -0 1.22299e-017
LeftArm 19.4779 41.8636 -69.6507
LeftForeArm -37.2843 -49.5066 30.4
LeftHand 0.376047 5.52163 26.3657
RightShoulder 1.98785e-016 -4.96962e-017 1.55301e-017
RightArm 2.18054 23.7316 58.494
RightForeArm 1.97534 9.6655 1.528
RightHand 1.23841 -13.1595 -0.365157
LeftUpLeg -19.9623 8.60037 8.07224
LeftLeg 32.8809 -1.16659 6.51271
LeftFoot 3.26418 0.725287 -4.88195
LeftToes 1.53707e-010 -1.11459e-010 1.58109e-011
243
root 11.8673 3.97795 4.13653 -162.942 86.3152 -71.2487
RightUpLeg -51.2412 -0.892986 -0.0378697
RightLeg 109.952 11.776 -1.0097
RightFoot 17.6031 -2.31704 8.43969
RightToes 4.07452e-010 -1.59028e-015 9.93923e-017
Spine 39.2217 3.06782 -0.60172
Spine1 30.3456 3.7936 -1.94936
HEad -24.7935 -2.10789 1.27657
LeftShoulder1 9.93923e-017 -0 1.22299e-017
LeftArm 19.4574 41.804 -69.5156
LeftForeArm -37.128 -49.4925 30.4012
LeftHand 0.787888 6.57016 25.6839
RightShoulder 1.98785e-016 -4.96962e-017 1.55301e-017
RightArm 1.40412 23.3237 58.3515
RightForeArm 2.15019 8.82319 2.31962
RightHand 1.2346 -13.2153 -0.21109
LeftUpLeg -17.8096 6.01311 7.2779
LeftLeg 31.3852 -0.818689 6.28191
LeftFoot 3.47255 0.674138 -4.47396
LeftToes 1.53707e-010 -1.11459e-010 1.58109e-011
244
root 11.6692 3.96176 4.08871 -163.745 87.1949 -71.4636
RightUpLeg -49.8882 -0.864294 -0.32666
RightLeg 105.429 11.9791 -2.23341
RightFoot 16.655 -2.36323 8.89052
RightToes 4.07452e-010 -1.59028e-015 9.93923e-017
Spine 36.7302 3.21676 -0.693874
Spine1 30.3222 3.97157 -2.11566
HEad -24.6556 -2.53941 1.8848
LeftShoulder1 9.93923e-017 -0 1.22299e-017
LeftArm 19.578 41.8935 -69.1497
LeftForeArm -36.4983 -49.7343 30.6502
LeftHand 1.26047 7.82832 24.5267
RightShoulder 1.98785e-016 -4.96962e-017 1.55301e-017
RightArm 0.377758 22.8809 58.1498
RightForeArm 2.17239 8.15567 2.81427
RightHand 1.26692 -13.513 -0.270343
LeftUpLeg -16.1279 3.94935 6.74561
LeftLeg 30.1546 -0.360948 6.19374
LeftFoot 4.09275 0.723385 -4.61614
LeftToes 1.53707e-010 -1.11459e-010 1.58109e-011
245
root 11.4648 3.96032 4.00919 -153.428 88.2085 -61.0708
RightUpLeg -49.1166 -0.547984 -0.287085
RightLeg 101.214 11.835 -2.71307
RightFoot 16.4112 -2.46067 9.33484
RightToes 4.07452e-010 -1.59028e-015 9.93923e-017
Spine 33.7604 3.12149 -0.224522
Spine1 30.0973 4.42353 -2.95859
HEad -24.202 -3.1601 2.82974
LeftShoulder1 9.93923e-017 -0 1.22299e-017
LeftArm 20.4212 41.9877 -68.6027
LeftForeArm -35.2058 -49.7083 30.7355
LeftHand 1.75507 9.29531 22.0893
RightShoulder 1.98785e-016 -4.96962e-017 1.55301e-017
RightArm -1.6563 22.3286 57.9545
RightForeArm 2.96393 7.32354 3.18407
RightHand 1.29525 -13.6299 -0.536415
LeftUpLeg -15.0674 2.48063 6.45121
LeftLeg 29.1619 0.268082 6.26732
LeftFoot 4.39782 0.913115 -5.74467
LeftToes 1.53707e-010 -1.11459e-010 1.58109e-011
246
root 11.2609 3.95919 3.9359 -136.836 89.1264 -44.3773
RightUpLeg -48.4493 -0.355579 -0.487845
RightLeg 97.6156 11.5751 -2.65147
RightFoot 16.5422 -2.59817 9.80841
RightToes 4.07452e-010 -1.59028e-015 9.93923e-017
Spine 30.4654 3.02116 0.104644
Spine1 29.9954 4.78067 -3.83343
HEad -23.7341 -3.63666 4.06425
LeftShoulder1 9.93923e-017 -0 1.22299e-017
LeftArm 21.7253 42.0204 -68.2928
LeftForeArm -33.9678 -49.1902 30.4163
LeftHand 2.18349 10.8377 18.9622
RightShoulder 1.98785e-016 -4.96962e-017 1.55301e-017
RightArm -3.7073 21.7899 57.8231
RightForeArm 4.31516 6.3472 3.56284
RightHand 1.30211 -13.5236 -0.808014
LeftUpLeg -14.0439 1.24213 5.99813
LeftLeg 28.1357 0.969102 6.34765
LeftFoot 4.11522 1.13533 -7.27992
LeftToes 1.53707e-010 -1.11459e-010 1.58109e-011
247
root 11.0721 3.96098 3.88886 -120.366 89.6263 -27.7293
RightUpLeg -47.838 -0.586803 -0.686701
RightLeg 94.5955 11.3714 -2.61778
RightFoot 16.8322 -2.75222 10.2823
RightToes 4.07452e-010 -1.59028e-015 9.93923e-017
Spine 26.5853 2.91466 0.287493
Spine1 30.4499 4.84592 -4.24166
HEad -23.3752 -4.04905 5.25608
LeftShoulder1 9.93923e-017 -0 1.22299e-017
LeftArm 22.9807 41.8927 -68.3492
LeftForeArm -33.5543 -48.425 29.8471
LeftHand 2.53214 12.4406 15.7558
RightShoulder 1.98785e-016 -4.96962e-017 1.55301e-017
RightArm -4.77806 21.4224 57.6344
RightForeArm 5.46645 5.39979 4.03651
RightHand 1.289 -13.445 -0.726851
LeftUpLeg -13.122 0.106811 5.56584
LeftLeg 27.0605 1.80908 6.4599
LeftFoot 3.68496 1.24683 -8.20743
LeftToes 1.53707e-010 -1.11459e-010 1.58109e-011
248
root 10.907 3.94805 3.87108 -115.753 89.8618 -22.751
RightUpLeg -47.3007 -0.999853 -0.786697
RightLeg 92.1533 11.2256 -2.72238
RightFoot 17.1479 -2.84045 10.4949
RightToes 4.07452e-010 -1.59028e-015 9.93923e-017
Spine 22.4738 2.94975 0.242475
Spine1 31.2001 4.66466 -3.89837
HEad -22.5222 -5.08556 5.77995
LeftShoulder1 9.93923e-017 -0 1.22299e-017
LeftArm 24.0574 41.366 -68.7282
LeftForeArm -33.4668 -47.0867 28.8448
LeftHand 2.7022 13.844 12.0187
RightShoulder 1.98785e-016 -4.96962e-017 1.55301e-017
RightArm -5.2765 21.1344 57.1975
RightForeArm 6.2693 4.54203 4.47527
RightHand 1.26265 -13.4959 -0.231263
LeftUpLeg -12.1744 -0.820252 5.23233
LeftLeg 26.0379 2.93312 6.70214
LeftFoot 3.52566 1.23943 -8.24096
LeftToes 1.53707e-010 -1.11459e-010 1.58109e-011
249
root 10.7544 3.9208 3.85245 80.5801 89.7549 174.128
RightUpLeg -46.9875 -1.20515 -1.01438
RightLeg 90.3289 11.1003 -2.57629
RightFoot 17.1971 -2.84719 10.5018
RightToes 4.07452e-010 -1.59028e-015 9.93923e-017
Spine 18.5347 3.11582 -0.0378699
Spine1 31.6526 4.43461 -3.22944
HEad -21.0608 -6.57284 5.36743
LeftShoulder1 9.93923e-017 -0 1.22299e-017
LeftArm 25.0994 40.2655 -69.6609
LeftForeArm -32.6383 -43.9682 26.7573
LeftHand 2.4945 14.0395 7.91679
RightShoulder 1.98785e-016 -4.96962e-017 1.55301e-017
RightArm -5.83589 20.6653 56.6574
RightForeArm 6.82326 3.9317 4.60838
RightHand 1.26162 -13.6697 0.0459589
LeftUpLeg -10.9906 -1.57288 4.78361
LeftLeg 25.0112 4.38976 7.06412
LeftFoot 3.59286 1.19037 -7.88065
LeftToes 1.53707e-010 -1.11459e-010 1.58109e-011
250
root 10.6031 3.90166 3.81103 54.1591 89.0315 148.25
RightUpLeg -47.0552 -1.26327 -1.53593
RightLeg 89.0339 11.0049 -2.06937
RightFoot 16.5591 -2.78405 10.5002
RightToes 4.07452e-010 -1.59028e-015 9.93923e-017
Spine 14.4147 3.19142 -0.452413
Spine1 32.0269 4.23164 -2.83448
HEad -20.7147 -6.576 5.14527
LeftShoulder1 9.93923e-017 -0 1.22299e-017
LeftArm 26.5751 38.6003 -71.1079
LeftForeArm -31.7207 -38.5917 23.6883
LeftHand 2.0298 12.5691 5.09999
RightShoulder 1.98785e-016 -4.96962e-017 1.55301e-017
RightArm -6.05884 19.884 56.3971
RightForeArm 6.74892 4.02118 4.334
RightHand 1.33922 -13.9695 -0.687642
LeftUpLeg -9.54352 -2.16222 3.96635
LeftLeg 23.6855 5.92939 7.37544
LeftFoot 3.76857 1.15474 -7.56152
LeftToes 1.53707e-010 -1.11459e-010 1.58109e-011
251
root 10.45 3.90529 3.77456 57.4758 88.232 151.859
RightUpLeg -47.5077 -1.56034 -2.07411
RightLeg 88.0177 10.9459 -1.59417
RightFoot 15.0729 -2.61616 10.4097
RightToes 4.07452e-010 -1.59028e-015 9.93923e-017
Spine 9.54248 3.0572 -1.05291
Spine1 32.8889 3.89801 -2.57314
HEad -22.1348 -4.64083 5.94674
LeftShoulder1 9.93923e-017 -0 1.22299e-017
LeftArm 29.1741 36.6884 -72.1579
LeftForeArm -32.7672 -32.5765 20.7119
LeftHand 1.68708 10.9558 4.09974
RightShoulder 1.98785e-016 -4.96962e-017 1.55301e-017
RightArm -5.22259 18.6135 56.4388
RightForeArm 5.7384 5.38051 3.56963
RightHand 1.45806 -14.1678 -2.11817
LeftUpLeg -8.11711 -2.15438 2.95836
LeftLeg 21.8319 6.73388 7.3186
LeftFoot 4.17268 1.17706 -7.52287
LeftToes 1.53707e-010 -1.11459e-010 1.58109e-011
252
root 10.2928 3.92116 3.79138 66.1235 87.7685 160.441
RightUpLeg -48.1526 -2.27084 -2.23019
RightLeg 87.0787 10.9055 -1.4101
RightFoot 13.134 -2.38006 10.2007
RightToes 4.07452e-010 -1.59028e-015 9.93923e-017
Spine 4.57613 2.76262 -2.11367
Spine1 33.1866 3.24463 -1.86868
HEad -21.4793 -4.3614 5.74085
LeftShoulder1 9.93923e-017 -0 1.22299e-017
LeftArm 32.4216 35.4919 -71.7766
LeftForeArm -35.9203 -28.1557 18.6781
LeftHand 1.61478 10.7523 3.03814
RightShoulder 1.98785e-016 -4.96962e-017 1.55301e-017
RightArm -1.6266 16.2298 56.4919
RightForeArm 2.35051 8.7179 1.63808
RightHand 1.48582 -13.9632 -2.85925
LeftUpLeg -7.00782 -1.46944 2.2856
LeftLeg 19.5674 6.29938 6.69699
LeftFoot 5.13756 1.36626 -8.25408
LeftToes 1.53707e-010 -1.11459e-010 1.58109e-011
253
root 10.1364 3.93564 3.85902 76.166 87.5472 170.172
RightUpLeg -48.7643 -3.10008 -2.02868
RightLeg 86.2307 10.8743 -1.26975
RightFoot 11.3699 -2.18773 10.0776
RightToes 4.07452e-010 -1.59028e-015 9.93923e-017
Spine 0.736877 2.31987 -3.4211
Spine1 31.3094 2.47582 -1.04748
HEad -21.4108 -3.85425 5.76133
LeftShoulder1 9.93923e-017 -0 1.22299e-017
LeftArm 34.0318 35.7883 -69.7496
LeftForeArm -38.467 -25.8635 17.4752
LeftHand 1.65755 11.6006 0.5284
RightShoulder 1.98785e-016 -4.96962e-017 1.55301e-017
RightArm 9.14332 12.2537 56.4592
RightForeArm -8.54599 14.1003 -3.54257
RightHand 1.3817 -13.4682 -2.15334
LeftUpLeg -6.14429 -0.60746 2.08129
LeftLeg 17.1213 5.33959 5.8553
LeftFoot 6.85929 1.83196 -10.0934
LeftToes 1.53707e-010 -1.11459e-010 1.58109e-011
254
root 9.99803 3.9484 3.93057 79.1773 87.263 172.812
RightUpLeg -49.2439 -3.56518 -1.80492
RightLeg 85.5797 10.8625 -0.891377
RightFoot 9.91863 -2.04291 10.0204
RightToes 4.07452e-010 -1.59028e-015 9.93923e-017
Spine -2.37808 1.83562 -4.06971
Spine1 28.691 2.16756 -1.16337
HEad -22.0635 -3.38077 5.87701
LeftShoulder1 9.93923e-017 -0 1.22299e-017
LeftArm 32.3039 36.4192 -66.7978
LeftForeArm -37.9442 -24.703 16.1933
LeftHand 1.60144 12.2495 -2.83902
RightShoulder 1.98785e-016 -4.96962e-017 1.55301e-017
RightArm 26.0625 7.54418 55.8525
RightForeArm -27.6143 18.6423 -13.3863
RightHand 1.25325 -13.103 -0.708349
LeftUpLeg -5.27147 0.0129303 2.01481
LeftLeg 14.6944 5.27316 5.35866
LeftFoot 8.80695 2.48528 -12.4747
LeftToes 1.53707e-010 -1.11459e-010 1.58109e-011
255
root 9.89012 3.95781 3.99009 73.4894 86.8211 166.831
RightUpLeg -49.5203 -3.37766 -1.73974
RightLeg 85.0684 10.8642 -0.485091
RightFoot 8.43077 -1.86011 9.7702
RightToes 4.07452e-010 -1.59028e-015 9.93923e-017
Spine -3.65565 1.40934 -4.10848
Spine1 24.8059 2.23892 -2.26972
HEad -22.442 -2.5537 5.89957
LeftShoulder1 9.93923e-017 -0 1.22299e-017
LeftArm 29.9103 37.2286 -62.8583
LeftForeArm -36.1192 -24.3802 15.6911
LeftHand 1.43775 12.259 -6.41884
RightShoulder 1.98785e-016 -4.96962e-017 1.55301e-017
RightArm 34.392 3.33816 53.9405
RightForeArm -38.8279 21.2382 -21.7137
RightHand 1.18232 -13.0334 0.378528
LeftUpLeg -4.40114 0.421591 1.93311
LeftLeg 12.7796 6.53541 5.24496
LeftFoot 9.79948 3.02614 -14.524
LeftToes 1.53707e-010 -1.11459e-010 1.58109e-011
